<svg xmlns="http://www.w3.org/2000/svg" enable-background="new 0 0 64 64" viewBox="0 0 64 64"><path d="M56,54H8c-2.76,0-5-2.24-5-5V15c0-2.76,2.24-5,5-5h48c2.76,0,5,2.24,5,5v34C61,51.76,58.76,54,56,54z M8,12c-1.65,0-3,1.35-3,3v34c0,1.65,1.35,3,3,3h48c1.65,0,3-1.35,3-3V15c0-1.65-1.35-3-3-3H8z"/><path d="M21 40h-8c-.55 0-1-.45-1-1V25c0-.55.45-1 1-1s1 .45 1 1v13h7c.55 0 1 .45 1 1S21.55 40 21 40zM51 40h-8c-.55 0-1-.45-1-1V25c0-.55.45-1 1-1h8c.55 0 1 .45 1 1s-.45 1-1 1h-7v12h7c.55 0 1 .45 1 1S51.55 40 51 40zM25 40c-.55 0-1-.45-1-1V25c0-.55.45-1 1-1s1 .45 1 1v14C26 39.55 25.55 40 25 40zM34 40c-.42 0-.8-.27-.94-.66l-5-14c-.19-.52.08-1.09.61-1.28.52-.19 1.09.09 1.28.61L34 36.03l4.06-11.36c.18-.52.76-.79 1.28-.61.52.19.79.76.61 1.28l-5 14C34.8 39.73 34.42 40 34 40z"/><path d="M51 33h-8c-.55 0-1-.45-1-1s.45-1 1-1h8c.55 0 1 .45 1 1S51.55 33 51 33zM53 20c-1.1 0-2-.9-2-2s.9-2 2-2 2 .9 2 2S54.1 20 53 20zM53 18L53 18 53 18zM53 18L53 18 53 18zM53 18L53 18 53 18zM53 18L53 18 53 18zM53 18L53 18 53 18zM53 18L53 18 53 18zM53 18L53 18 53 18zM53 18L53 18 53 18z"/></svg>